<?xml version="1.0" standalone="no"?>
<!DOCTYPE svg PUBLIC "-//W3C//DTD SVG 20010904//EN"
 "http://www.w3.org/TR/2001/REC-SVG-20010904/DTD/svg10.dtd">
<svg version="1.0" xmlns="http://www.w3.org/2000/svg"
 width="976.000000pt" height="976.000000pt" viewBox="0 0 976.000000 976.000000"
 preserveAspectRatio="xMidYMid meet">
<metadata>
Created by potrace 1.14, written by Peter Selinger 2001-2017
</metadata>
<g transform="translate(0.000000,976.000000) scale(0.100000,-0.100000)"
fill="#000000" stroke="none">
<path d="M1354 9281 c6 -10 -23 -16 -40 -8 -3 1 -10 -6 -15 -15 -6 -10 -16
-18 -24 -18 -18 0 -87 -65 -78 -74 4 -3 1 -6 -5 -6 -32 0 -75 -181 -50 -216 4
-6 9 -23 10 -37 1 -15 8 -29 15 -31 7 -3 13 -13 13 -22 0 -10 6 -25 14 -33 8
-9 16 -23 18 -31 3 -14 7 -21 36 -55 7 -8 9 -15 5 -15 -4 0 -3 -4 2 -8 9 -7
46 -70 69 -119 6 -13 15 -23 19 -23 5 0 5 -4 2 -10 -3 -5 -1 -10 6 -10 7 0 10
-3 6 -6 -5 -6 0 -15 31 -49 7 -8 10 -15 6 -15 -4 0 1 -9 10 -19 10 -11 15 -25
11 -30 -3 -6 -2 -11 4 -11 10 0 87 -130 83 -142 -1 -5 2 -8 6 -8 5 0 17 -18
28 -40 10 -22 23 -40 27 -40 5 0 6 -4 3 -9 -3 -5 1 -11 9 -15 8 -3 12 -12 9
-21 -3 -8 -1 -15 5 -15 6 0 16 -11 21 -25 5 -13 21 -43 35 -65 26 -41 34 -54
95 -165 19 -33 37 -62 40 -65 4 -3 13 -20 21 -37 8 -18 17 -33 21 -33 5 0 8
-9 8 -20 0 -11 5 -20 10 -20 6 0 10 -7 10 -15 0 -8 3 -15 8 -15 4 0 13 -12 19
-27 7 -16 23 -44 35 -63 12 -19 22 -37 23 -40 0 -3 17 -33 38 -68 20 -35 37
-67 37 -73 0 -5 4 -9 8 -9 10 0 37 -50 34 -62 -1 -5 2 -8 8 -8 5 0 10 -6 10
-13 0 -7 8 -22 18 -33 9 -11 18 -26 20 -34 2 -8 8 -17 13 -18 5 -2 7 -7 4 -12
-3 -4 2 -13 10 -20 8 -7 15 -18 15 -25 0 -7 7 -18 15 -25 9 -7 13 -15 11 -18
-3 -2 0 -10 7 -18 22 -25 32 -40 35 -54 2 -8 9 -22 16 -30 6 -8 18 -27 26 -42
7 -16 17 -28 22 -28 5 0 7 -4 4 -8 -3 -5 10 -32 29 -61 19 -29 35 -59 35 -67
0 -8 5 -14 10 -14 6 0 10 -7 10 -15 0 -8 5 -15 12 -15 6 0 8 -3 5 -7 -4 -3 -1
-13 6 -22 8 -9 25 -36 38 -61 13 -25 26 -47 29 -50 3 -3 10 -14 16 -25 74
-137 116 -209 132 -227 8 -10 11 -18 6 -18 -5 0 -4 -4 2 -8 9 -6 31 -44 102
-172 13 -25 30 -52 36 -60 7 -8 23 -36 37 -62 13 -27 28 -48 32 -48 5 0 5 -4
2 -10 -3 -5 -1 -10 6 -10 7 0 10 -3 6 -6 -3 -4 7 -26 23 -50 17 -23 30 -47 30
-52 0 -5 7 -15 15 -22 8 -7 12 -16 9 -21 -3 -5 -1 -9 4 -9 5 0 17 -18 27 -40
10 -22 22 -40 27 -40 5 0 7 -4 4 -8 -3 -5 3 -18 14 -29 10 -12 16 -24 13 -27
-4 -3 0 -6 7 -6 7 0 11 -3 7 -6 -3 -4 5 -23 18 -43 14 -19 25 -41 25 -47 0 -7
7 -14 15 -18 8 -3 14 -9 13 -13 -3 -13 24 -63 34 -63 5 0 6 -4 3 -10 -3 -5 -1
-10 5 -10 6 0 8 -4 5 -10 -3 -5 -1 -10 4 -10 6 0 11 -7 11 -15 0 -8 5 -15 10
-15 6 0 10 -9 10 -20 0 -11 5 -20 10 -20 6 0 10 -4 10 -9 0 -9 41 -81 86 -151
13 -19 24 -42 26 -50 2 -8 9 -21 16 -28 6 -7 12 -20 12 -28 0 -8 4 -13 8 -10
7 4 31 -39 35 -61 0 -4 8 -16 16 -25 9 -9 27 -39 41 -65 13 -26 38 -68 54 -93
17 -25 30 -47 30 -50 0 -3 9 -21 20 -40 12 -19 20 -37 18 -38 -2 -2 5 -10 15
-18 10 -7 14 -14 9 -14 -4 0 4 -16 18 -35 15 -19 23 -35 19 -35 -4 0 -3 -4 2
-8 6 -4 17 -20 25 -37 8 -16 17 -32 20 -35 10 -10 41 -65 47 -82 3 -10 10 -18
15 -18 5 0 6 -4 3 -10 -3 -5 -1 -10 5 -10 6 0 8 -4 5 -10 -3 -6 -1 -10 4 -10
6 0 11 -4 11 -10 0 -5 16 -34 35 -65 20 -30 36 -58 36 -62 0 -5 9 -18 20 -31
11 -13 17 -27 14 -32 -4 -6 -3 -10 2 -10 4 0 19 -21 33 -47 13 -27 27 -50 30
-53 3 -3 12 -18 20 -35 8 -16 18 -32 21 -35 10 -9 33 -55 31 -62 -1 -5 2 -8 7
-8 5 0 11 -8 14 -17 4 -10 20 -40 37 -68 17 -27 33 -57 37 -65 4 -8 9 -17 12
-20 3 -3 14 -20 24 -38 9 -17 25 -47 35 -64 9 -18 19 -35 22 -38 6 -6 23 -36
63 -110 16 -30 35 -60 41 -65 6 -6 12 -17 14 -25 2 -8 9 -24 16 -35 7 -11 13
-24 14 -29 0 -5 5 -12 10 -15 5 -3 22 -28 36 -56 26 -48 39 -69 84 -145 41
-67 76 -135 74 -142 -1 -5 2 -8 6 -8 4 0 21 -25 37 -55 17 -30 34 -55 38 -55
5 0 5 -4 2 -10 -3 -5 -1 -10 4 -10 6 0 11 -7 11 -15 0 -8 4 -15 8 -15 5 0 15
-12 23 -27 8 -15 26 -40 42 -55 15 -15 27 -31 27 -35 0 -9 136 -153 144 -153
2 0 18 -12 34 -27 55 -52 109 -98 118 -101 24 -10 64 -37 64 -45 0 -4 5 -5 10
-2 6 3 10 2 10 -2 0 -5 22 -20 50 -34 27 -13 50 -28 50 -32 0 -5 4 -6 9 -2 5
3 17 -2 25 -11 9 -8 16 -13 16 -10 0 3 16 -3 37 -14 20 -10 40 -17 44 -15 4 3
9 -1 12 -8 2 -7 17 -13 32 -15 16 -1 33 -6 39 -11 6 -4 22 -11 36 -15 156 -43
176 -48 270 -61 92 -13 320 -23 320 -14 0 3 17 6 38 6 39 0 109 8 152 18 14 3
41 8 60 11 19 3 37 9 40 13 3 3 14 7 25 8 28 3 48 8 60 14 14 8 68 23 78 21 4
-1 7 3 7 10 0 6 3 9 6 5 4 -3 19 0 35 9 16 8 31 14 34 14 26 0 297 165 342
209 12 11 25 21 27 21 3 0 36 30 73 67 38 37 72 66 78 64 5 -1 7 1 3 5 -4 4 8
22 28 40 19 19 32 34 27 34 -4 0 1 7 11 15 11 8 16 15 11 15 -5 0 1 7 13 16
12 8 20 19 17 24 -3 4 -1 10 3 12 10 4 77 100 77 110 0 4 8 17 18 28 9 11 17
26 17 34 0 7 7 19 15 26 8 7 15 17 15 22 0 5 9 29 20 54 23 49 42 95 45 107 2
4 4 10 5 15 1 4 2 10 1 14 0 5 3 8 7 8 4 0 8 8 9 18 2 21 6 37 22 84 7 21 10
42 6 48 -3 5 -1 10 6 10 7 0 10 3 7 6 -4 3 -2 19 3 36 9 34 17 92 25 197 9
112 9 141 2 141 -4 0 -3 11 2 25 5 14 6 25 1 25 -4 0 -7 12 -6 27 0 15 -3 53
-7 83 -4 30 -10 73 -13 95 -3 22 -13 65 -22 95 -9 30 -17 62 -18 70 -1 8 -7
29 -14 45 -6 17 -16 44 -22 60 -6 17 -23 55 -37 85 -14 30 -26 57 -27 60 -3
15 -39 76 -49 82 -6 4 -8 8 -4 8 6 0 -82 155 -102 178 -6 6 -8 12 -5 12 3 0
-6 17 -20 37 -14 21 -25 41 -25 46 0 5 -7 15 -15 24 -8 8 -13 19 -10 24 4 5 2
9 -4 9 -5 0 -13 9 -16 20 -3 11 -12 26 -18 33 -7 7 -27 42 -46 77 -19 36 -37
67 -41 70 -7 5 -22 43 -20 48 1 2 -9 12 -21 23 -12 10 -19 19 -16 19 4 0 -2
15 -13 33 -11 17 -29 50 -41 72 -12 22 -26 43 -31 46 -5 3 -9 8 -8 10 1 2 -8
22 -21 44 -13 22 -23 43 -21 48 1 4 -2 7 -8 7 -5 0 -10 6 -10 13 0 7 -8 22
-18 33 -10 10 -19 24 -20 29 -12 49 -121 136 -173 137 -16 1 -29 4 -29 8 0 4
-15 6 -32 5 -102 -7 -116 -10 -112 -17 3 -4 -4 -8 -14 -8 -11 0 -25 -7 -32
-15 -7 -8 -17 -15 -23 -15 -13 0 -57 -52 -57 -68 0 -7 -4 -10 -10 -7 -5 3 -11
1 -11 -4 -3 -20 -5 -26 -19 -51 -8 -15 -14 -54 -14 -96 0 -57 5 -81 28 -127
15 -31 32 -59 37 -62 5 -4 7 -11 4 -16 -4 -5 -2 -9 2 -9 5 0 21 -24 37 -52 15
-29 39 -71 52 -93 13 -22 30 -52 36 -67 7 -16 16 -28 21 -28 4 0 5 -4 2 -10
-3 -5 -2 -10 2 -10 5 0 20 -22 34 -50 13 -27 28 -50 32 -50 5 0 5 -4 2 -10 -3
-6 -1 -10 4 -10 6 0 11 -7 11 -15 0 -8 5 -15 10 -15 6 0 10 -7 10 -15 0 -8 5
-15 11 -15 5 0 8 -4 4 -9 -3 -5 2 -16 10 -24 8 -9 15 -19 15 -24 0 -5 11 -25
25 -46 14 -20 23 -37 20 -37 -3 0 -1 -6 5 -12 26 -32 58 -87 52 -92 -3 -3 0
-6 6 -6 7 0 12 -4 12 -9 0 -9 79 -152 90 -161 3 -3 16 -27 30 -55 14 -27 28
-51 33 -53 4 -2 7 -12 7 -21 0 -10 3 -21 7 -25 10 -9 33 -78 33 -98 0 -10 4
-18 9 -18 5 0 8 -11 6 -25 -1 -14 1 -25 6 -25 4 0 8 -8 7 -17 0 -10 3 -43 7
-73 15 -104 8 -264 -14 -352 -5 -20 -6 -39 -3 -42 3 -4 1 -6 -4 -6 -5 0 -11
-12 -12 -27 -1 -16 -6 -29 -12 -31 -5 -2 -6 -10 -3 -18 3 -8 0 -14 -6 -14 -6
0 -10 -3 -9 -7 1 -5 -4 -24 -11 -43 -8 -19 -13 -38 -12 -42 0 -5 -3 -8 -8 -8
-5 0 -13 -10 -17 -23 -9 -28 -74 -128 -94 -144 -8 -7 -12 -13 -8 -13 4 0 -10
-18 -31 -39 -22 -22 -36 -42 -33 -45 3 -3 1 -6 -5 -6 -6 0 -26 -15 -45 -32
-52 -48 -72 -63 -91 -71 -9 -3 -17 -11 -17 -17 0 -6 -4 -8 -10 -5 -5 3 -10 1
-10 -4 0 -6 -7 -11 -15 -11 -7 0 -19 -8 -24 -17 -6 -10 -11 -14 -11 -10 0 4
-10 2 -22 -5 -13 -7 -26 -11 -30 -10 -5 1 -8 -2 -8 -8 0 -5 -9 -10 -20 -10
-11 0 -20 -5 -20 -11 0 -5 -4 -8 -9 -4 -5 3 -13 0 -16 -6 -4 -5 -13 -8 -21 -5
-8 3 -14 2 -14 -2 0 -10 -134 -43 -184 -45 -20 -1 -36 -5 -36 -8 0 -7 -203 -4
-255 5 -40 6 -80 14 -100 20 -5 2 -23 6 -40 11 -16 4 -34 10 -40 14 -5 3 -14
6 -20 7 -5 1 -23 8 -40 15 -16 7 -32 13 -35 14 -47 16 -190 103 -190 116 0 5
-6 9 -14 9 -8 0 -26 14 -40 31 -14 17 -26 27 -26 24 0 -7 -72 68 -102 108 -10
12 -31 40 -48 61 -17 22 -28 41 -26 44 3 2 -4 13 -15 25 -10 11 -19 27 -19 34
0 7 -4 13 -8 13 -5 0 -14 16 -22 35 -8 19 -17 35 -22 35 -4 0 -8 6 -8 14 0 7
-9 25 -20 38 -10 14 -16 28 -13 32 3 3 1 6 -5 6 -7 0 -12 6 -12 13 0 7 -9 23
-20 35 -12 12 -18 22 -15 22 4 0 -3 13 -14 29 -12 16 -21 32 -21 35 0 4 -11
23 -23 44 -13 20 -35 58 -49 83 -45 80 -53 94 -58 99 -3 3 -14 23 -25 44 -11
22 -26 46 -33 53 -8 7 -15 19 -16 26 -1 7 -13 30 -26 52 -45 72 -60 100 -66
118 -4 9 -11 17 -16 17 -5 0 -7 4 -3 9 3 5 1 12 -5 16 -5 3 -19 25 -30 48 -10
23 -19 38 -20 34 0 -5 -16 22 -36 60 -20 37 -39 70 -43 73 -3 3 -7 12 -9 20
-2 8 -8 17 -13 18 -5 2 -9 10 -9 18 0 8 -5 14 -12 14 -6 0 -9 3 -5 6 3 4 -9
29 -27 58 -18 28 -39 66 -47 84 -7 17 -17 32 -20 32 -3 0 -14 18 -24 40 -10
22 -21 40 -26 40 -4 0 -10 14 -14 30 -4 16 -11 30 -16 30 -5 0 -9 7 -9 15 0 8
-4 15 -8 15 -5 0 -14 16 -22 35 -8 19 -17 35 -21 35 -4 0 -13 16 -20 35 -7 19
-17 35 -21 35 -4 0 -8 4 -8 10 0 5 -14 33 -31 62 -18 29 -41 69 -52 88 -11 19
-28 49 -38 65 -11 17 -24 42 -30 58 -6 15 -14 27 -18 27 -3 0 -12 15 -20 33
-8 17 -17 34 -20 37 -3 3 -14 20 -23 38 -10 17 -26 47 -35 64 -10 18 -21 35
-24 38 -3 3 -12 20 -20 38 -8 17 -17 32 -21 32 -5 0 -8 6 -8 14 0 7 -7 19 -15
26 -8 7 -12 16 -9 21 3 5 0 9 -5 9 -6 0 -11 7 -11 15 0 8 -4 15 -10 15 -5 0
-10 6 -10 13 0 7 -15 36 -34 65 -19 28 -33 52 -30 52 4 0 -45 79 -56 90 -3 3
-6 12 -8 20 -2 8 -8 17 -13 18 -5 2 -9 12 -9 22 0 10 -7 20 -15 24 -8 3 -15
14 -15 24 0 10 -5 23 -11 29 -12 12 -16 19 -63 105 -16 29 -31 55 -35 58 -3 3
-19 31 -36 63 -16 31 -33 57 -38 57 -4 0 -5 5 -2 10 3 6 2 10 -2 10 -5 0 -16
18 -26 40 -9 22 -21 40 -27 40 -5 0 -10 9 -10 19 0 11 -7 26 -15 35 -8 8 -19
25 -25 38 -6 13 -19 37 -29 53 -10 17 -27 46 -38 65 -11 19 -44 75 -72 123
-28 49 -51 93 -51 98 0 5 -3 9 -7 9 -5 0 -17 18 -27 40 -11 22 -23 40 -28 40
-4 0 -8 3 -7 8 2 14 -13 52 -21 52 -4 0 -13 14 -20 30 -7 17 -17 30 -23 30 -6
0 -7 3 -4 6 8 8 -24 64 -36 64 -4 0 -6 4 -2 9 3 5 -2 17 -11 25 -8 9 -12 16
-8 16 3 0 0 7 -7 16 -14 18 -31 45 -51 84 -7 14 -16 27 -20 30 -4 3 -12 17
-17 30 -11 25 -36 68 -67 115 -9 14 -12 25 -8 25 5 0 4 4 -2 8 -7 4 -23 28
-37 54 -14 26 -28 44 -31 41 -3 -4 -6 3 -6 15 0 12 -5 22 -11 22 -5 0 -8 4 -5
9 3 5 -1 14 -9 21 -8 7 -15 19 -15 26 0 8 -4 14 -10 14 -5 0 -10 4 -10 9 0 9
-53 106 -88 161 -9 14 -17 27 -17 30 0 9 -49 85 -58 91 -5 3 -9 10 -9 15 -1
14 -11 38 -18 44 -3 3 -24 37 -45 75 -22 39 -45 79 -52 90 -7 11 -15 27 -19
35 -4 8 -16 26 -26 39 -10 13 -15 27 -12 32 3 5 1 9 -4 9 -5 0 -20 21 -33 48
-13 26 -27 49 -31 50 -5 2 -8 10 -8 18 0 8 -5 14 -11 14 -6 0 -9 7 -5 15 3 8
1 15 -5 15 -5 0 -14 10 -19 23 -11 24 -52 97 -78 137 -9 14 -15 28 -14 33 1 4
-3 7 -9 7 -5 0 -8 4 -5 9 4 5 3 11 -2 13 -10 4 -92 144 -92 157 0 6 -5 11 -12
11 -6 0 -9 3 -5 6 3 4 -5 22 -20 40 -14 19 -22 34 -18 34 3 0 0 7 -7 15 -26
28 -43 50 -41 50 8 1 -11 45 -19 45 -5 0 -6 5 -3 10 3 6 2 10 -3 10 -8 0 -36
50 -32 59 1 2 -3 7 -8 10 -5 3 -17 21 -26 40 -23 43 -96 122 -107 115 -5 -3
-9 -1 -9 5 0 11 -64 34 -101 37 -15 0 -34 4 -43 7 -8 3 -18 2 -21 -3 -4 -6
-14 -6 -27 1 -15 8 -19 8 -14 0z"/>
<path d="M1058 8130 c-15 -5 -29 -5 -32 -2 -3 3 -6 1 -6 -4 0 -5 -10 -11 -22
-11 -13 -1 -28 -9 -34 -17 -6 -9 -13 -13 -16 -11 -8 8 -88 -75 -88 -91 0 -8
-5 -14 -11 -14 -5 0 -7 -4 -4 -10 3 -5 2 -10 -2 -10 -9 0 -14 -24 -17 -72 0
-16 -4 -28 -8 -28 -3 0 -2 -16 3 -35 6 -19 7 -39 4 -44 -3 -5 0 -15 7 -23 7
-7 15 -22 16 -33 2 -11 8 -21 13 -23 5 -2 9 -10 9 -18 0 -8 5 -14 10 -14 6 0
10 -9 10 -20 0 -11 4 -20 8 -20 5 0 17 -18 27 -40 10 -22 23 -40 28 -40 6 0 7
-3 4 -6 -4 -4 2 -19 13 -34 11 -16 20 -33 20 -39 0 -6 5 -11 10 -11 6 0 10 -7
10 -15 0 -8 5 -15 11 -15 5 0 8 -4 5 -9 -3 -5 0 -14 8 -20 8 -7 17 -23 20 -36
4 -14 11 -25 17 -25 6 0 7 -4 4 -10 -3 -5 -1 -10 4 -10 6 0 11 -7 11 -15 0 -8
5 -15 11 -15 5 0 8 -4 4 -9 -3 -5 -1 -12 4 -16 5 -3 16 -18 24 -33 18 -36 41
-76 47 -82 4 -4 18 -29 64 -115 6 -11 13 -22 16 -25 8 -8 28 -42 51 -90 13
-25 25 -47 28 -50 4 -3 15 -22 26 -42 11 -21 23 -38 28 -38 4 0 5 -4 2 -10 -3
-5 -1 -10 5 -10 6 0 8 -4 5 -10 -3 -5 -1 -10 4 -10 6 0 11 -6 11 -14 0 -8 7
-22 16 -30 8 -9 12 -16 8 -16 -4 0 1 -7 12 -16 10 -8 12 -12 4 -8 -11 5 -10 2
3 -13 10 -11 26 -36 36 -54 34 -65 56 -104 61 -109 3 -3 12 -14 20 -24 13 -18
13 -19 0 -12 -9 4 -8 2 2 -7 10 -8 15 -17 11 -20 -3 -4 -1 -7 5 -7 7 0 12 -7
12 -15 0 -8 5 -15 11 -15 5 0 7 -4 4 -10 -3 -5 -3 -10 2 -10 4 0 13 -10 19
-23 35 -73 67 -127 77 -127 6 0 8 -3 4 -6 -3 -3 12 -35 34 -70 21 -35 35 -64
31 -64 -4 0 -2 -4 4 -8 12 -8 94 -150 94 -163 0 -5 5 -9 10 -9 6 0 10 -6 10
-14 0 -7 7 -19 15 -26 8 -7 12 -16 9 -21 -3 -5 -2 -9 3 -9 4 0 13 -10 19 -23
42 -83 62 -116 68 -110 3 3 6 -3 6 -15 0 -12 3 -22 8 -22 4 0 12 -10 18 -23
24 -51 78 -142 85 -145 5 -2 9 -12 9 -23 0 -10 4 -19 9 -19 5 0 11 -8 14 -17
4 -10 20 -40 37 -68 17 -27 33 -58 37 -67 3 -10 8 -18 12 -18 3 0 15 -20 26
-45 11 -25 23 -45 28 -45 4 0 5 -4 2 -10 -3 -5 -1 -10 5 -10 6 0 9 -4 6 -9 -3
-5 1 -12 10 -15 8 -3 13 -10 10 -14 -3 -5 2 -18 12 -28 15 -17 37 -55 81 -139
9 -16 22 -35 29 -43 7 -7 10 -18 7 -23 -4 -5 -2 -9 3 -9 7 0 28 -33 69 -112 8
-16 18 -28 23 -28 5 0 7 -8 3 -17 -3 -10 -2 -15 2 -11 7 7 45 -61 44 -78 0 -3
9 -14 21 -24 12 -10 21 -21 22 -24 0 -18 12 -46 18 -46 5 0 13 -12 19 -27 6
-16 19 -41 30 -58 10 -16 28 -47 40 -68 12 -21 29 -49 37 -63 9 -13 13 -24 8
-24 -4 0 1 -7 12 -15 10 -8 15 -15 11 -15 -4 0 -3 -6 3 -12 13 -15 54 -80 55
-88 0 -3 19 -36 42 -75 22 -38 41 -74 41 -79 0 -5 4 -12 9 -15 5 -3 22 -28 38
-56 15 -27 33 -53 39 -57 6 -4 7 -8 2 -8 -4 0 -1 -11 8 -25 29 -44 55 -89 82
-142 15 -29 32 -53 37 -53 6 0 8 -3 4 -6 -3 -4 1 -13 9 -21 8 -8 12 -19 9 -24
-4 -5 -2 -9 3 -9 5 0 15 -13 22 -30 7 -17 17 -30 22 -30 5 0 7 -4 3 -9 -3 -5
-1 -12 4 -15 5 -4 22 -31 37 -61 16 -30 31 -55 34 -55 4 0 12 -16 20 -35 8
-19 18 -35 23 -35 5 0 6 -7 3 -16 -3 -8 -2 -13 3 -10 8 5 30 -32 27 -45 0 -4
6 -15 15 -25 18 -22 74 -118 71 -122 -2 -1 4 -10 13 -18 8 -9 15 -22 15 -30 0
-8 4 -14 9 -14 5 0 11 -8 15 -17 3 -10 10 -25 15 -33 16 -24 123 -211 147
-257 12 -23 25 -39 29 -35 4 4 6 0 3 -8 -3 -8 0 -20 6 -27 29 -33 36 -43 31
-43 -4 0 3 -12 14 -26 11 -15 18 -30 15 -35 -3 -5 -1 -9 3 -9 5 0 29 -35 53
-77 24 -43 52 -87 62 -97 10 -11 18 -26 18 -33 0 -7 4 -13 8 -13 4 0 15 -12
24 -27 21 -35 46 -67 81 -104 15 -16 27 -32 27 -36 0 -3 14 -19 30 -35 17 -15
30 -30 30 -33 0 -9 141 -145 151 -145 6 0 7 -4 4 -10 -3 -5 1 -10 10 -10 9 0
13 -4 10 -10 -3 -5 0 -10 9 -10 8 0 16 -3 18 -8 2 -6 86 -78 123 -105 5 -4 21
-16 34 -27 13 -11 30 -20 38 -20 8 0 11 -5 8 -10 -3 -6 1 -10 10 -10 8 0 18
-6 21 -14 3 -9 12 -12 21 -9 11 4 14 2 9 -5 -5 -8 0 -12 14 -12 12 0 18 -4 15
-10 -3 -5 3 -10 14 -10 12 0 21 -4 21 -8 0 -9 36 -30 181 -103 53 -27 101 -49
108 -49 6 0 11 -5 11 -12 0 -6 3 -8 7 -5 3 4 12 2 20 -4 7 -6 13 -8 13 -5 0 4
10 1 23 -6 12 -7 24 -13 27 -14 13 -3 47 -16 63 -25 10 -5 22 -7 27 -4 6 4 10
1 10 -6 0 -7 3 -10 6 -7 3 4 21 0 40 -8 19 -8 34 -11 34 -8 0 4 7 1 15 -6 8
-6 19 -9 24 -6 5 4 12 2 16 -4 4 -6 11 -8 16 -5 5 4 9 2 9 -2 0 -5 12 -10 28
-11 15 -1 41 -6 57 -11 27 -9 53 -14 135 -26 14 -2 36 -6 50 -10 14 -3 54 -8
90 -11 106 -8 162 -14 169 -19 4 -2 13 0 20 5 8 4 26 4 41 0 15 -4 34 -3 43 2
11 6 17 5 17 -1 0 -6 7 -8 15 -5 8 3 53 7 99 8 47 1 88 5 92 8 3 4 12 4 19 2
7 -3 22 -1 33 5 13 7 22 7 30 -1 9 -9 12 -9 12 -1 0 7 10 10 25 7 14 -2 25 -1
25 3 0 5 12 9 28 9 32 2 104 14 114 20 4 3 26 7 50 10 24 4 45 9 48 13 3 3 10
7 16 8 49 9 62 13 88 22 16 7 31 9 34 6 3 -2 10 -1 16 4 6 5 43 21 81 35 39
15 84 33 100 40 17 8 69 33 117 56 49 22 88 46 88 52 0 6 3 8 6 5 4 -3 16 -1
28 5 11 7 24 11 29 10 4 -1 7 3 7 9 0 5 14 15 30 20 17 6 30 14 30 19 0 4 14
13 30 20 17 7 30 16 30 21 0 5 5 9 10 9 11 0 24 10 61 42 10 10 19 16 19 13 0
-6 19 8 56 42 14 13 27 23 30 23 3 0 16 12 29 26 14 15 25 24 25 20 0 -10 216
208 270 273 25 29 71 90 103 135 31 44 65 91 75 102 9 12 18 28 20 35 2 8 9
17 15 21 7 4 8 8 2 8 -5 0 -5 4 1 8 7 4 26 34 43 67 18 33 40 74 50 90 10 17
16 33 14 37 -2 5 1 8 6 8 6 0 10 3 9 7 -1 5 5 22 12 38 7 17 13 33 12 38 -1 4
3 7 9 7 5 0 8 4 4 9 -3 5 -1 12 5 16 6 4 8 11 5 16 -4 5 -1 9 5 9 6 0 9 4 6 8
-3 5 4 23 14 40 13 22 16 32 7 32 -8 0 -9 2 -1 8 10 6 23 35 30 65 1 4 3 9 4
12 1 3 4 10 5 15 1 6 4 12 5 15 1 3 4 10 5 15 1 6 4 13 5 18 1 4 2 11 1 16 -1
4 3 13 8 20 5 6 12 27 15 47 3 20 8 42 10 50 3 8 8 25 10 39 3 14 7 36 10 50
15 74 27 155 30 200 1 14 6 31 10 38 4 7 3 12 -3 12 -7 0 -7 8 -2 23 12 32 12
345 0 352 -5 4 -6 11 -3 17 9 14 11 68 3 68 -5 0 -13 73 -12 118 1 12 -2 22
-6 22 -4 0 -8 15 -9 33 -2 38 -5 58 -13 72 -4 6 -5 20 -4 33 1 12 -3 22 -8 22
-5 0 -7 7 -4 15 4 8 2 17 -3 20 -5 3 -7 14 -5 25 2 11 0 20 -5 20 -5 0 -7 9
-5 20 2 11 0 20 -6 20 -5 0 -9 11 -9 23 0 13 -3 27 -7 31 -4 4 -9 18 -10 31
-2 13 -10 36 -18 51 -8 15 -12 31 -9 36 3 4 1 8 -4 8 -4 0 -15 22 -22 50 -7
27 -17 50 -22 50 -4 0 -8 6 -8 14 0 8 -13 40 -30 71 -16 31 -30 61 -30 65 0 4
-19 39 -41 76 -23 38 -48 83 -56 101 -7 18 -18 33 -23 33 -6 0 -10 9 -10 20 0
11 -5 20 -11 20 -5 0 -7 5 -4 10 3 6 1 10 -4 10 -6 0 -11 7 -11 15 0 8 -4 15
-9 15 -5 0 -12 11 -15 25 -4 14 -11 25 -17 25 -6 0 -7 5 -4 10 3 6 2 10 -3 10
-4 0 -14 16 -22 35 -8 19 -17 35 -22 35 -4 0 -8 5 -8 11 0 6 -9 23 -19 38 -11
15 -21 34 -23 41 -2 8 -11 23 -20 34 -10 11 -18 25 -18 32 0 7 -3 14 -7 16 -5
2 -19 24 -32 51 -13 26 -28 47 -33 47 -5 0 -7 4 -4 9 3 5 -3 19 -13 32 -20 26
-47 74 -57 102 -3 9 -11 17 -16 17 -5 0 -6 5 -3 10 3 6 1 10 -5 10 -6 0 -8 5
-5 10 3 6 2 10 -3 10 -6 0 -15 14 -21 30 -5 17 -15 30 -20 30 -6 0 -11 8 -11
18 0 10 -5 23 -10 28 -14 14 -49 74 -56 97 -4 9 -9 17 -13 17 -4 0 -15 20 -26
45 -11 25 -23 45 -27 45 -5 0 -8 4 -8 9 0 5 -20 44 -45 85 -25 42 -45 81 -45
86 0 6 -4 10 -9 10 -5 0 -11 8 -14 18 -8 23 -40 75 -52 84 -5 4 -6 8 -1 8 5 0
3 8 -5 18 -8 9 -20 27 -26 40 -7 12 -19 32 -25 45 -7 12 -15 24 -18 27 -3 3
-14 23 -26 45 -33 64 -48 87 -71 114 -13 14 -23 29 -23 33 0 5 -7 8 -15 8 -8
0 -15 5 -15 10 0 6 -7 10 -15 10 -8 0 -15 4 -15 10 0 5 -3 9 -7 8 -5 -1 -20 4
-35 10 -24 10 -122 18 -138 12 -3 -1 -13 -3 -23 -5 -24 -5 -111 -47 -118 -58
-3 -5 -8 -8 -10 -7 -2 1 -22 -8 -44 -21 -22 -13 -42 -22 -44 -21 -2 2 -7 -1
-10 -6 -7 -11 -84 -57 -123 -74 -16 -7 -28 -15 -28 -19 0 -4 -11 -10 -24 -13
-14 -3 -31 -12 -38 -19 -18 -16 -44 -31 -98 -58 -25 -13 -47 -26 -50 -29 -5
-7 -51 -34 -60 -35 -3 0 -18 -9 -33 -19 -34 -23 -79 -48 -129 -73 -21 -10 -38
-21 -38 -25 0 -5 -7 -8 -15 -8 -8 0 -15 -5 -15 -11 0 -5 -4 -7 -10 -4 -5 3
-10 1 -10 -5 0 -6 -4 -8 -10 -5 -5 3 -10 1 -10 -4 0 -6 -7 -11 -15 -11 -8 0
-15 -5 -15 -11 0 -5 -5 -7 -10 -4 -6 3 -13 -1 -16 -9 -3 -9 -10 -14 -14 -11
-5 3 -14 -1 -22 -8 -7 -7 -28 -19 -45 -26 -18 -7 -33 -17 -33 -22 0 -5 -7 -9
-15 -9 -8 0 -23 -8 -33 -17 -10 -10 -25 -19 -33 -21 -7 -2 -17 -8 -20 -14 -3
-5 -10 -10 -15 -10 -16 -1 -38 -11 -56 -27 -10 -9 -22 -16 -26 -16 -9 -1 -72
-40 -89 -55 -7 -6 -13 -8 -13 -5 0 3 -17 -6 -37 -20 -21 -14 -43 -25 -49 -25
-7 0 -15 -7 -18 -16 -3 -8 -10 -13 -15 -10 -17 11 -120 -79 -146 -127 -14 -27
-23 -52 -20 -57 3 -5 0 -12 -6 -15 -5 -4 -8 -13 -5 -21 3 -7 1 -16 -5 -20 -6
-4 -6 -11 2 -20 8 -10 8 -14 0 -14 -7 0 -8 -8 -1 -25 5 -14 7 -25 4 -25 -4 0
-1 -7 6 -15 6 -8 9 -19 5 -25 -3 -5 -2 -10 4 -10 5 0 13 -9 16 -21 13 -41 65
-93 123 -123 26 -13 105 -30 137 -28 41 2 81 15 132 42 88 47 137 74 143 80 6
6 46 29 82 47 15 8 30 19 33 24 4 5 11 7 16 4 5 -4 12 1 15 9 3 9 10 13 15 10
5 -3 12 2 15 10 3 9 9 14 13 12 9 -5 72 30 65 37 -3 3 12 11 33 18 20 6 44 18
51 26 7 7 20 13 28 13 8 0 14 5 14 11 0 5 5 7 10 4 6 -3 10 -1 10 4 0 6 7 11
15 11 8 0 15 4 15 8 0 5 16 14 35 22 19 8 35 18 35 22 0 5 4 7 9 4 5 -3 20 5
35 19 14 13 26 22 26 19 0 -7 94 48 102 61 4 5 8 6 8 1 0 -4 16 4 35 18 19 15
35 25 35 22 0 -6 111 59 132 78 10 9 22 16 27 16 12 0 100 50 106 61 4 5 15 9
26 9 11 0 17 5 14 10 -3 6 3 10 14 10 12 0 24 -11 33 -30 7 -16 16 -30 20 -30
5 0 8 -6 8 -13 0 -7 6 -19 13 -25 6 -7 13 -16 13 -20 6 -27 18 -51 24 -47 4 3
10 -5 14 -18 3 -12 20 -44 38 -72 19 -27 40 -65 47 -82 7 -18 17 -33 22 -33 5
0 9 -9 9 -20 0 -11 4 -20 9 -20 5 0 17 -18 27 -40 10 -22 22 -40 27 -40 4 0 6
-4 3 -9 -3 -5 1 -14 9 -21 8 -7 12 -16 9 -21 -3 -5 -1 -9 4 -9 5 0 15 -13 22
-30 7 -16 17 -30 22 -30 5 0 7 -4 4 -8 -2 -4 7 -26 22 -49 28 -42 60 -98 63
-111 2 -4 9 -13 16 -20 7 -7 13 -19 13 -27 0 -7 7 -15 15 -19 8 -3 15 -13 15
-21 0 -9 13 -35 28 -58 15 -23 34 -55 42 -72 8 -16 17 -32 20 -35 4 -4 18 -29
64 -115 6 -11 14 -22 17 -25 11 -10 83 -145 81 -152 -1 -5 2 -8 6 -8 5 0 18
-19 31 -42 12 -24 35 -67 51 -95 16 -29 26 -53 22 -53 -4 0 -2 -4 4 -8 13 -9
45 -80 74 -162 12 -36 25 -72 28 -80 3 -8 7 -24 9 -35 2 -10 7 -22 11 -25 4
-3 8 -14 9 -25 0 -11 4 -31 7 -45 15 -62 18 -80 30 -157 7 -44 11 -88 10 -97
-1 -9 1 -16 4 -16 4 0 7 -27 8 -60 0 -40 -3 -57 -10 -53 -8 5 -8 3 0 -8 15
-20 0 -334 -16 -334 -1 0 -4 -20 -6 -44 -3 -25 -9 -52 -13 -60 -5 -9 -7 -24
-6 -33 2 -10 0 -18 -4 -18 -4 0 -7 -8 -8 -17 -1 -19 -10 -58 -13 -58 -1 0 -3
-8 -6 -17 -7 -32 -11 -43 -22 -71 -7 -16 -12 -32 -12 -37 0 -4 -7 -21 -15 -36
-8 -16 -15 -37 -15 -46 0 -10 -4 -18 -10 -18 -5 0 -10 -9 -10 -20 0 -11 -5
-20 -10 -20 -6 0 -9 -3 -8 -7 1 -5 -10 -33 -25 -63 -72 -144 -176 -293 -284
-409 -24 -25 -43 -49 -43 -54 0 -4 -3 -7 -7 -5 -10 5 -62 -49 -55 -56 3 -4 0
-6 -6 -6 -11 0 -48 -29 -90 -70 -9 -8 -19 -15 -24 -15 -5 0 -12 -5 -16 -11 -4
-6 -29 -25 -57 -44 -27 -19 -52 -36 -55 -39 -3 -3 -18 -13 -35 -21 -16 -8 -36
-21 -43 -27 -13 -12 -27 -17 -44 -14 -5 0 -8 -4 -8 -9 0 -6 -10 -14 -22 -19
-13 -5 -54 -23 -93 -41 -38 -17 -85 -38 -103 -46 -18 -8 -37 -12 -42 -9 -6 3
-10 1 -10 -4 0 -6 -8 -11 -18 -11 -10 0 -22 -3 -26 -7 -7 -7 -22 -11 -64 -18
-13 -2 -28 -7 -35 -12 -10 -8 -34 -12 -84 -16 -7 0 -13 -3 -13 -6 0 -3 -17 -8
-38 -9 -53 -5 -87 -10 -87 -12 0 -1 -16 -3 -35 -4 -19 -1 -41 -5 -48 -10 -7
-4 -12 -2 -12 5 0 7 -4 8 -12 2 -14 -10 -232 -10 -318 1 -78 9 -133 17 -150
20 -8 1 -33 6 -55 10 -22 4 -47 10 -55 13 -8 4 -21 5 -27 4 -7 -1 -13 3 -13 8
0 6 -7 8 -15 5 -8 -4 -21 -2 -28 3 -6 6 -34 16 -62 24 -27 7 -52 14 -55 15
-41 13 -50 18 -50 26 0 5 -3 7 -8 4 -7 -4 -44 12 -169 71 -18 8 -33 20 -33 25
0 5 -4 7 -9 3 -5 -3 -17 3 -27 12 -10 10 -18 16 -18 14 -1 -6 -59 31 -68 44
-4 5 -8 6 -8 2 0 -9 -120 80 -132 98 -4 5 -8 7 -8 3 0 -16 -230 207 -230 223
0 6 -5 7 -10 4 -6 -3 -10 0 -10 9 0 8 -3 16 -7 18 -13 5 -85 98 -76 98 4 0 -3
7 -15 16 -12 8 -22 22 -22 30 0 8 -5 14 -11 14 -5 0 -8 4 -5 9 3 5 -1 12 -10
15 -8 3 -13 10 -10 15 3 4 -3 16 -14 26 -11 10 -17 22 -14 26 3 5 1 9 -4 9 -5
0 -15 14 -22 30 -7 17 -17 30 -22 30 -5 0 -6 4 -3 10 3 5 1 10 -6 10 -7 0 -9
3 -6 6 4 4 -2 19 -13 34 -11 16 -20 33 -20 39 0 6 -3 11 -7 11 -5 0 -24 30
-43 68 -19 37 -38 69 -42 72 -4 3 -12 17 -17 30 -12 27 -33 62 -42 70 -3 3
-12 20 -20 38 -8 17 -16 32 -20 32 -3 0 -11 16 -19 35 -8 19 -17 35 -22 35 -4
0 -8 5 -8 11 0 6 -9 24 -21 40 -11 16 -17 29 -12 29 4 0 0 5 -9 11 -10 5 -18
19 -18 29 0 11 -4 20 -10 20 -5 0 -10 6 -10 14 0 7 -7 19 -15 26 -8 7 -12 16
-9 21 3 5 0 9 -5 9 -6 0 -11 7 -11 15 0 9 -7 18 -15 21 -8 4 -13 9 -11 13 6 9
-40 91 -48 84 -3 -3 -6 3 -6 15 0 12 -4 22 -10 22 -5 0 -12 11 -16 25 -3 13
-12 29 -20 36 -8 6 -11 15 -8 20 3 5 0 9 -5 9 -6 0 -11 7 -11 15 0 8 -9 24
-20 35 -11 11 -20 26 -20 33 0 7 -5 18 -10 23 -14 14 -49 74 -56 97 -4 9 -9
17 -13 17 -4 0 -15 20 -26 45 -11 25 -23 45 -27 45 -5 0 -8 4 -8 9 0 5 -24 49
-52 98 -29 48 -53 90 -53 93 0 3 -12 23 -26 45 -14 22 -29 47 -32 55 -4 8 -18
33 -32 55 -14 22 -29 50 -35 62 -5 11 -14 24 -20 28 -5 3 -8 11 -5 16 4 5 3 9
-2 9 -4 0 -19 21 -33 48 -13 26 -27 49 -30 52 -3 3 -16 28 -30 55 -14 28 -31
56 -38 64 -13 14 -29 48 -30 64 0 5 -7 14 -15 20 -13 11 -42 59 -101 172 -12
22 -24 42 -27 45 -3 3 -19 30 -35 60 -16 30 -34 61 -41 68 -6 6 -15 21 -18 32
-3 11 -11 20 -16 20 -5 0 -8 3 -7 8 3 7 -70 143 -82 152 -3 3 -12 20 -19 38
-8 17 -17 32 -22 32 -5 0 -9 9 -9 19 0 11 -4 21 -9 23 -7 3 -61 94 -85 145 -6
13 -14 23 -18 23 -5 0 -8 7 -8 15 0 8 -5 15 -11 15 -5 0 -8 4 -4 9 3 5 -2 16
-10 24 -8 9 -15 23 -15 33 0 10 -3 15 -6 11 -4 -3 -22 23 -41 60 -19 36 -41
72 -49 80 -8 8 -12 19 -9 24 4 5 2 9 -3 9 -9 0 -29 36 -30 54 0 5 -4 12 -9 15
-11 7 -78 125 -74 129 1 2 -6 10 -16 18 -10 7 -14 14 -10 14 4 0 -6 20 -23 45
-17 25 -27 45 -23 45 4 0 -1 7 -11 15 -11 8 -16 15 -10 15 5 0 5 3 -1 8 -10 7
-26 35 -70 119 -12 24 -25 40 -29 36 -3 -3 -6 3 -6 15 0 12 -4 22 -8 22 -4 0
-14 16 -21 35 -7 19 -17 35 -22 35 -5 0 -9 7 -9 15 0 9 -9 25 -20 37 -11 12
-20 28 -20 35 0 7 -5 13 -12 13 -6 0 -9 3 -5 6 3 4 -9 31 -28 60 -19 30 -35
59 -35 64 0 6 -5 10 -11 10 -5 0 -7 5 -4 10 3 6 1 10 -5 10 -6 0 -8 5 -5 10 3
6 3 10 -2 10 -4 0 -13 10 -19 23 -26 52 -50 92 -64 105 -8 7 -10 11 -3 8 6 -4
-5 19 -25 50 -20 32 -37 61 -37 66 0 5 -6 12 -13 17 -8 5 -12 10 -11 12 5 6
-103 193 -113 197 -4 2 -8 12 -8 23 0 10 -4 19 -8 19 -5 0 -17 18 -27 40 -10
22 -23 40 -28 40 -6 0 -7 3 -4 6 4 4 -2 19 -13 34 -11 16 -20 33 -20 39 0 6
-3 11 -8 11 -4 0 -14 15 -21 33 -8 17 -21 38 -28 45 -7 8 -11 18 -8 23 4 5 2
9 -3 9 -5 0 -20 21 -33 48 -13 26 -27 49 -31 50 -5 2 -8 10 -8 18 0 8 -5 14
-11 14 -5 0 -8 4 -4 10 3 5 -3 18 -15 30 -11 11 -20 26 -20 33 0 8 -9 24 -20
37 -11 13 -20 26 -20 29 -1 22 -112 116 -124 104 -3 -3 -6 -1 -6 6 0 7 -4 10
-9 6 -5 -3 -12 -2 -15 3 -2 4 -24 9 -47 11 -23 1 -45 3 -48 5 -3 2 -18 0 -33
-4z"/>
<path d="M6737 7604 c-1 -2 -20 -5 -42 -8 -53 -7 -96 -15 -115 -22 -17 -7 -58
-16 -80 -18 -8 0 -18 -4 -21 -9 -3 -4 -15 -9 -26 -12 -12 -2 -32 -11 -46 -19
-13 -9 -27 -13 -30 -10 -4 4 -9 -1 -13 -10 -3 -9 -10 -13 -15 -10 -5 3 -28 -8
-51 -25 -22 -17 -45 -28 -50 -25 -4 3 -8 0 -8 -5 0 -6 -7 -11 -15 -11 -8 0
-15 -4 -15 -10 0 -5 -7 -10 -15 -10 -8 0 -24 -9 -35 -20 -11 -11 -22 -20 -25
-20 -15 1 -105 -52 -105 -61 0 -5 -4 -7 -10 -4 -5 3 -26 -6 -45 -21 -19 -14
-35 -22 -35 -18 0 5 -4 4 -8 -2 -4 -6 -29 -24 -57 -38 -27 -15 -63 -36 -80
-46 -16 -11 -43 -26 -60 -35 -55 -28 -90 -50 -93 -58 -2 -4 -8 -5 -13 -1 -5 3
-9 0 -9 -5 0 -6 -5 -11 -10 -11 -6 0 -35 -16 -65 -35 -30 -19 -55 -32 -55 -29
0 3 -7 -2 -16 -10 -8 -9 -20 -14 -25 -11 -5 4 -9 1 -9 -4 0 -6 -7 -11 -15 -11
-8 0 -15 -4 -15 -8 0 -5 -18 -17 -40 -27 -22 -10 -40 -21 -40 -25 0 -3 -16
-12 -36 -19 -19 -7 -38 -19 -41 -27 -3 -8 -9 -12 -13 -9 -4 3 -20 -5 -36 -18
-16 -12 -31 -21 -34 -21 -3 1 -58 -29 -122 -67 -64 -38 -121 -69 -127 -69 -5
0 -14 -7 -19 -16 -5 -9 -13 -16 -18 -16 -23 -2 -44 -11 -44 -19 0 -5 -5 -9
-10 -9 -15 0 -61 -40 -97 -84 -39 -46 -56 -149 -41 -234 12 -63 79 -147 137
-173 17 -8 31 -16 31 -19 0 -14 148 -19 180 -7 57 21 100 42 100 50 0 4 7 7
15 7 8 0 15 5 15 10 0 6 3 9 8 8 13 -4 92 42 92 54 0 6 3 8 7 5 3 -4 17 0 30
8 13 9 23 12 23 8 0 -5 5 0 11 10 5 9 16 17 23 17 8 0 19 7 26 15 7 8 21 15
32 15 10 0 17 4 14 9 -4 5 7 12 24 16 16 4 30 10 30 14 0 5 18 16 40 26 22 10
40 22 40 27 0 4 9 8 20 8 11 0 20 4 20 10 0 5 11 12 25 16 14 3 25 10 25 14 0
9 27 20 43 19 5 0 16 8 25 19 9 10 24 17 32 14 8 -3 12 -1 8 3 -5 5 9 16 30
27 20 10 60 31 87 48 28 16 60 34 73 40 12 5 22 14 22 20 0 5 3 10 8 9 15 -2
52 14 52 23 0 5 5 6 10 3 6 -3 10 -1 10 5 0 6 5 8 10 5 6 -3 10 -2 10 3 0 5 8
12 18 16 21 7 55 28 63 40 4 5 12 5 18 2 6 -4 11 -3 11 3 0 5 32 27 70 47 39
21 70 42 70 47 0 4 4 6 9 3 5 -3 20 3 34 14 14 11 28 20 32 20 4 0 18 9 32 20
14 11 29 17 34 14 5 -3 9 0 9 5 0 6 7 11 15 11 8 0 15 5 15 10 0 6 7 10 15 10
8 0 15 5 15 12 0 6 3 8 6 5 4 -4 19 2 33 12 43 31 148 62 217 64 35 1 64 5 64
9 0 4 12 3 26 -2 14 -6 35 -10 47 -10 33 0 169 -45 161 -53 -4 -4 2 -7 13 -7
11 0 26 -7 33 -15 7 -8 16 -15 21 -15 22 0 169 -150 169 -173 0 -5 14 -28 30
-52 17 -24 30 -51 30 -60 0 -8 7 -18 15 -21 8 -4 15 -13 15 -20 0 -8 9 -24 20
-36 10 -12 17 -25 14 -30 -3 -4 1 -11 10 -14 8 -3 13 -11 10 -18 -2 -6 3 -21
13 -32 16 -17 32 -44 67 -109 6 -11 16 -23 21 -27 6 -4 6 -8 2 -8 -5 0 -2 -7
5 -15 29 -33 34 -41 30 -53 -2 -6 0 -12 6 -12 9 0 37 -50 34 -62 -1 -5 3 -8 8
-8 6 0 10 -7 10 -15 0 -9 6 -18 14 -21 9 -3 12 -12 9 -21 -4 -11 -2 -14 5 -9
8 5 12 0 12 -13 0 -12 5 -21 10 -21 6 0 10 -7 10 -15 0 -8 5 -15 11 -15 5 0 8
-4 4 -9 -3 -5 1 -15 8 -23 7 -7 20 -28 28 -45 7 -18 17 -33 20 -33 4 0 14 -17
22 -39 9 -21 22 -45 29 -52 7 -8 23 -32 34 -54 68 -127 127 -225 137 -225 5 0
7 -3 4 -7 -4 -3 0 -17 9 -31 9 -13 29 -49 46 -81 17 -31 36 -61 42 -66 6 -6
12 -17 14 -25 2 -8 10 -25 18 -37 8 -13 14 -26 13 -29 0 -4 4 -10 9 -13 5 -3
22 -28 36 -56 15 -27 36 -63 46 -80 10 -16 31 -54 46 -82 14 -29 31 -53 37
-53 6 0 7 -3 4 -7 -4 -3 2 -20 13 -38 11 -18 17 -35 13 -38 -3 -4 -1 -7 5 -7
7 0 12 -9 12 -19 0 -11 4 -21 8 -23 18 -7 152 -366 152 -407 0 -12 4 -21 8
-21 5 0 9 -6 9 -12 1 -24 13 -90 19 -99 3 -5 7 -22 10 -37 2 -15 7 -38 10 -52
4 -14 8 -38 9 -55 1 -16 3 -30 5 -30 2 0 6 -26 14 -105 2 -25 5 -45 6 -45 1 0
3 -31 6 -69 2 -38 6 -72 9 -74 3 -3 0 -11 -6 -19 -6 -7 -8 -13 -3 -13 5 0 8
-48 8 -107 -3 -154 -8 -263 -14 -263 -3 0 -6 -19 -7 -43 -1 -23 -5 -58 -8 -77
-3 -19 -6 -47 -5 -62 0 -16 -3 -28 -8 -28 -4 0 -7 -12 -7 -27 1 -16 -1 -32 -4
-38 -3 -5 -6 -14 -7 -20 -14 -75 -46 -199 -55 -210 -4 -5 -11 -28 -15 -50 -4
-22 -15 -59 -25 -82 -10 -22 -15 -44 -12 -47 4 -3 0 -6 -7 -6 -7 0 -11 -3 -8
-6 4 -3 -4 -29 -16 -57 -25 -58 -39 -90 -41 -97 -5 -18 -52 -106 -58 -111 -5
-3 -8 -9 -8 -13 1 -12 -13 -41 -26 -54 -7 -8 -11 -18 -8 -23 4 -5 2 -9 -3 -9
-5 0 -12 -8 -16 -17 -7 -22 -34 -68 -64 -111 -13 -17 -20 -32 -16 -32 4 0 -3
-9 -16 -20 -13 -11 -20 -20 -17 -20 4 0 -9 -21 -29 -47 -20 -27 -45 -61 -57
-77 -12 -16 -29 -37 -37 -47 -8 -10 -25 -31 -37 -46 -12 -15 -43 -50 -68 -78
-25 -27 -45 -53 -45 -57 0 -4 -7 -8 -15 -8 -8 0 -15 -3 -15 -7 0 -16 -187
-190 -250 -233 -12 -8 -38 -28 -57 -45 -20 -16 -39 -30 -42 -30 -7 0 -26 -15
-62 -47 -10 -10 -19 -16 -19 -13 0 3 -21 -9 -47 -27 -27 -18 -50 -33 -53 -33
-3 0 -23 -12 -45 -26 -59 -38 -85 -51 -85 -42 0 4 -4 3 -8 -3 -9 -14 -74 -49
-84 -46 -5 1 -8 -3 -8 -10 0 -6 -2 -9 -6 -6 -3 3 -32 -7 -64 -23 -32 -16 -70
-31 -85 -35 -14 -3 -25 -10 -25 -15 0 -5 -7 -6 -15 -3 -8 4 -15 1 -15 -6 0 -6
-6 -10 -12 -7 -7 2 -24 -1 -38 -9 -26 -13 -57 -25 -75 -29 -5 -2 -44 -13 -85
-25 -41 -12 -83 -24 -95 -26 -11 -2 -30 -6 -42 -9 -52 -12 -62 -14 -99 -21
-22 -4 -49 -7 -61 -8 -13 -1 -23 -4 -23 -7 0 -3 -12 -6 -27 -6 -16 -1 -48 -4
-73 -8 -25 -3 -71 -8 -103 -10 -32 -1 -61 -6 -64 -9 -4 -3 -12 -1 -20 5 -7 6
-13 7 -13 2 0 -5 -7 -10 -15 -10 -8 0 -15 5 -15 11 0 7 -3 7 -8 1 -10 -14 -65
-14 -74 -1 -5 8 -8 8 -8 0 0 -13 -48 -13 -67 -1 -7 5 -13 4 -13 -2 0 -10 -31
-7 -50 4 -6 3 -10 1 -10 -5 0 -6 -4 -8 -10 -5 -5 3 -38 8 -72 10 -52 4 -85 7
-178 20 -3 0 -11 4 -17 8 -8 5 -13 4 -13 -3 0 -7 -6 -8 -19 -1 -10 6 -21 8
-24 5 -3 -3 -12 -2 -19 2 -7 5 -22 10 -33 11 -38 5 -103 19 -107 23 -4 2 -32
8 -80 16 -21 3 -38 9 -38 13 0 4 -6 8 -14 8 -8 0 -40 8 -73 18 -32 11 -61 18
-65 17 -5 -1 -8 3 -8 10 0 6 -3 8 -7 5 -3 -4 -12 -2 -20 4 -7 6 -13 8 -13 4 0
-4 -7 -2 -15 5 -8 7 -15 10 -15 7 0 -3 -12 0 -27 8 -15 8 -30 12 -35 9 -4 -3
-8 -1 -8 5 0 6 -12 14 -27 17 -16 4 -47 17 -71 30 -23 13 -49 24 -57 24 -8 0
-15 4 -15 8 0 8 -60 36 -72 33 -5 0 -8 3 -8 7 0 5 -16 14 -35 22 -19 8 -35 16
-35 19 0 3 -21 17 -47 31 -27 13 -51 29 -55 35 -4 5 -8 6 -8 1 0 -5 -9 1 -20
14 -11 13 -20 19 -20 14 0 -5 -4 -4 -8 1 -10 15 -66 50 -74 47 -5 -1 -8 5 -8
13 0 8 -7 15 -15 15 -8 0 -15 5 -15 10 0 6 -5 10 -11 10 -6 0 -17 6 -24 12 -8
7 -28 24 -45 38 -131 105 -309 283 -400 400 -19 25 -39 50 -45 56 -5 6 -17 22
-25 34 -8 12 -21 28 -27 36 -7 7 -13 16 -13 19 0 4 -13 24 -30 45 -16 21 -30
43 -30 49 0 6 -4 11 -10 11 -5 0 -10 5 -10 12 0 6 -10 23 -22 36 -13 14 -17
22 -10 18 11 -7 11 -4 0 13 -7 12 -16 21 -20 21 -5 0 -8 7 -8 15 0 8 -4 15
-10 15 -5 0 -10 9 -10 20 0 11 -4 20 -10 20 -5 0 -10 7 -10 15 0 8 -5 15 -12
15 -6 0 -9 3 -6 6 4 3 -5 22 -18 41 -13 20 -24 42 -24 49 0 8 -4 14 -10 14 -5
0 -10 7 -10 15 0 8 -5 15 -11 15 -5 0 -7 5 -4 10 3 6 -1 13 -9 16 -9 3 -16 14
-16 23 0 9 -9 27 -20 41 -11 14 -20 31 -20 38 0 6 -3 12 -7 12 -5 0 -13 10
-19 23 -21 42 -59 112 -64 117 -3 3 -11 16 -18 29 -8 13 -23 40 -35 60 -11 20
-27 47 -34 61 -8 14 -23 39 -33 55 -11 17 -27 47 -37 68 -10 20 -21 37 -25 37
-5 0 -8 5 -8 10 0 6 -11 28 -24 49 -14 21 -22 42 -19 45 4 3 2 6 -3 6 -5 0
-21 21 -34 48 -14 26 -27 49 -30 52 -10 10 -41 65 -47 83 -3 9 -9 17 -14 17
-5 0 -9 9 -9 20 0 11 -4 20 -8 20 -5 0 -17 18 -27 40 -10 22 -22 40 -27 40 -4
0 -8 9 -8 20 0 11 -5 20 -12 20 -6 0 -9 3 -5 6 3 4 1 12 -6 20 -32 36 -39 46
-34 51 3 3 -3 14 -13 26 -11 11 -17 24 -14 29 3 4 -2 11 -10 14 -9 3 -16 13
-16 21 0 8 -13 34 -30 57 -16 24 -26 46 -23 50 4 3 2 6 -4 6 -5 0 -20 20 -32
45 -12 24 -26 47 -32 50 -5 4 -7 11 -4 16 4 5 1 9 -4 9 -6 0 -11 7 -11 15 0 8
-4 15 -9 15 -5 0 -12 11 -15 25 -4 14 -11 25 -17 25 -6 0 -8 4 -5 8 3 5 -3 18
-14 29 -10 12 -16 24 -13 27 4 3 -2 13 -13 21 -10 8 -14 15 -9 15 6 0 6 3 0 8
-16 11 -67 102 -58 102 4 0 0 5 -10 11 -9 5 -17 17 -17 24 0 8 -5 15 -12 15
-6 0 -8 3 -5 7 4 3 1 13 -6 22 -23 28 -68 111 -60 111 4 0 3 4 -3 8 -13 9 -74
109 -74 122 0 6 -4 10 -8 10 -5 0 -14 16 -22 35 -8 19 -17 35 -20 35 -3 0 -12
16 -20 35 -8 19 -17 35 -22 35 -4 0 -8 7 -8 15 0 8 -4 15 -10 15 -5 0 -10 6
-10 13 0 7 -13 34 -30 60 -16 26 -27 47 -24 47 3 0 -2 7 -10 16 -9 8 -13 21
-9 27 3 7 2 8 -2 4 -9 -7 -29 23 -57 86 -7 15 -16 27 -20 27 -4 0 -8 5 -8 11
0 6 -9 24 -21 40 -11 16 -17 29 -12 29 4 0 4 4 -2 8 -13 9 -34 42 -41 65 -4 9
-11 17 -16 17 -5 0 -7 4 -4 9 3 5 -1 14 -9 21 -8 7 -15 16 -15 21 0 5 -13 30
-29 56 -56 92 -82 138 -88 156 -3 9 -9 17 -14 17 -5 0 -9 7 -9 15 0 8 -5 15
-12 15 -6 0 -9 3 -5 6 3 3 -5 24 -19 45 -13 21 -24 43 -24 49 0 5 -3 10 -7 10
-5 0 -13 10 -18 23 -17 35 -59 112 -66 117 -3 3 -16 25 -29 50 -14 25 -31 53
-39 63 -8 9 -11 17 -7 17 4 0 -2 10 -13 22 -11 11 -18 25 -15 30 3 4 -2 11
-10 14 -9 3 -14 10 -11 14 3 5 -1 15 -9 23 -8 8 -12 17 -9 21 4 3 1 6 -5 6 -6
0 -14 10 -18 23 -4 12 -20 41 -35 64 -16 23 -29 46 -29 51 0 5 -7 15 -15 22
-8 7 -12 16 -9 21 3 5 0 9 -5 9 -6 0 -11 7 -11 15 0 8 -5 15 -12 15 -6 0 -9 3
-6 6 4 3 -5 22 -18 41 -13 20 -24 42 -24 49 0 8 -4 14 -10 14 -5 0 -10 7 -10
15 0 8 -5 15 -11 15 -5 0 -8 4 -5 9 3 5 -1 14 -9 21 -8 7 -13 16 -10 20 3 4
-2 11 -11 14 -8 3 -13 10 -10 15 3 5 -1 14 -9 21 -8 7 -15 19 -15 26 0 8 -4
14 -9 14 -5 0 -11 8 -14 18 -10 27 -54 103 -77 129 -11 13 -20 28 -20 35 0 6
-3 8 -6 5 -4 -4 -15 3 -25 15 -11 11 -19 18 -19 15 0 -4 -17 2 -38 13 -38 20
-147 35 -166 22 -6 -3 -19 -8 -29 -9 -32 -5 -95 -42 -111 -65 -9 -12 -16 -18
-16 -13 0 17 -29 -30 -30 -48 0 -10 -4 -16 -9 -13 -8 5 -16 -15 -28 -64 -4
-19 -4 -111 0 -130 2 -8 9 -25 15 -37 7 -13 10 -23 7 -23 -4 0 4 -15 17 -32
13 -18 23 -37 23 -41 0 -4 6 -11 13 -16 8 -5 14 -12 14 -17 2 -22 11 -44 18
-44 7 0 25 -34 29 -55 1 -5 8 -17 15 -25 8 -8 25 -35 38 -60 47 -85 70 -125
87 -150 9 -14 27 -47 41 -73 14 -27 32 -56 40 -66 8 -9 16 -23 18 -31 2 -8 9
-18 15 -22 7 -4 9 -8 5 -8 -4 0 4 -16 17 -36 14 -20 23 -40 20 -44 -3 -4 2
-10 10 -14 8 -3 15 -12 15 -21 0 -8 5 -15 11 -15 5 0 8 -4 5 -9 -3 -5 1 -14 9
-21 8 -7 12 -16 9 -21 -3 -5 -1 -9 4 -9 5 0 17 -18 28 -40 10 -22 22 -40 27
-40 4 0 7 -6 7 -14 0 -7 7 -19 15 -26 8 -7 12 -16 9 -21 -3 -5 -1 -9 4 -9 4 0
14 -16 22 -35 8 -19 18 -35 22 -35 5 0 6 -4 3 -10 -3 -5 -2 -10 3 -10 10 0 48
-70 44 -82 -1 -5 2 -8 6 -8 4 0 24 -29 43 -65 18 -36 38 -65 42 -65 5 0 5 -4
2 -10 -3 -5 -1 -10 6 -10 7 0 10 -3 6 -6 -3 -3 3 -15 13 -27 11 -11 17 -23 15
-27 -3 -4 2 -13 10 -20 8 -7 15 -19 15 -26 0 -8 5 -14 10 -14 6 0 10 -9 10
-21 0 -13 4 -18 12 -13 8 5 9 2 5 -9 -3 -10 -2 -17 3 -17 5 0 17 -15 25 -32
30 -62 40 -78 47 -78 5 0 8 -9 8 -20 0 -11 6 -23 14 -26 8 -3 16 -19 20 -35 4
-20 10 -28 17 -23 7 4 9 3 5 -4 -3 -6 -2 -13 4 -17 6 -4 8 -10 5 -15 -3 -4 2
-11 11 -14 8 -3 12 -10 9 -16 -3 -6 1 -13 9 -16 9 -3 16 -13 16 -20 0 -8 5
-20 10 -27 23 -26 78 -126 72 -131 -3 -3 0 -6 7 -6 7 0 9 -4 6 -10 -3 -5 -2
-10 3 -10 4 0 16 -15 25 -32 9 -18 30 -55 47 -83 17 -27 33 -57 37 -65 4 -8 9
-17 12 -20 13 -11 31 -51 31 -67 0 -9 3 -14 6 -10 4 3 14 -8 24 -26 37 -70 55
-102 61 -107 6 -5 17 -25 55 -100 10 -19 24 -41 31 -48 7 -7 13 -20 13 -28 0
-8 5 -14 11 -14 5 0 7 -5 4 -10 -3 -6 -2 -10 3 -10 5 0 12 -8 15 -17 4 -10 17
-36 31 -58 14 -22 37 -62 52 -90 14 -27 29 -52 33 -55 3 -3 17 -26 31 -53 13
-26 28 -47 32 -47 4 0 5 -6 2 -13 -2 -7 5 -22 16 -34 11 -12 20 -25 20 -28 0
-3 18 -35 40 -71 22 -36 40 -70 40 -75 0 -5 5 -9 11 -9 5 0 7 -5 4 -10 -3 -6
1 -13 9 -16 9 -3 14 -10 11 -14 -3 -5 0 -15 7 -22 7 -8 21 -29 31 -48 34 -64
52 -95 57 -100 3 -3 16 -25 29 -50 43 -80 46 -84 58 -97 6 -7 15 -23 19 -36 4
-12 10 -24 14 -27 4 -3 20 -30 37 -60 43 -80 57 -104 63 -110 3 -3 11 -16 18
-30 18 -38 48 -88 62 -105 7 -8 9 -15 4 -15 -4 0 1 -7 12 -16 10 -8 12 -13 4
-9 -9 4 -6 -2 5 -12 11 -10 21 -25 23 -32 1 -7 18 -37 37 -66 18 -29 31 -56
28 -59 -4 -3 -1 -6 5 -6 7 0 12 -6 12 -13 0 -7 8 -22 18 -33 9 -11 18 -26 20
-34 2 -8 7 -17 11 -20 3 -3 18 -27 31 -55 14 -27 28 -51 32 -53 4 -2 17 -24
29 -50 13 -26 25 -49 28 -52 3 -3 12 -15 19 -28 31 -55 38 -67 55 -86 9 -11
17 -26 17 -33 0 -7 5 -13 11 -13 5 0 8 -4 5 -8 -3 -5 4 -15 15 -22 10 -8 19
-18 19 -23 0 -10 52 -81 63 -85 4 -2 7 -8 7 -14 0 -6 12 -21 26 -34 14 -13 22
-29 19 -34 -3 -6 1 -10 9 -10 9 0 16 -4 16 -10 0 -5 8 -18 18 -28 9 -10 39
-44 66 -75 70 -82 233 -246 239 -241 3 3 8 -4 12 -15 3 -12 10 -21 15 -21 5 0
21 -11 36 -25 15 -14 31 -25 35 -25 5 0 9 -6 9 -12 0 -7 18 -24 40 -38 22 -13
40 -28 40 -32 0 -4 6 -8 13 -8 7 0 18 -9 25 -20 7 -11 19 -20 27 -20 8 0 15
-4 15 -10 0 -5 5 -10 12 -10 6 0 18 -7 27 -15 22 -21 140 -105 147 -105 3 0
18 -8 32 -19 15 -10 44 -28 65 -40 20 -11 54 -31 75 -42 61 -35 171 -90 178
-88 4 0 10 -4 13 -9 3 -6 15 -12 26 -14 11 -1 26 -9 33 -16 7 -6 22 -12 33
-12 10 0 19 -4 19 -10 0 -5 7 -10 15 -10 8 0 23 -4 33 -9 29 -16 174 -71 187
-71 6 0 26 -7 43 -16 18 -8 36 -13 41 -10 5 4 11 2 13 -4 1 -5 15 -11 31 -12
15 -1 27 -7 27 -12 0 -5 2 -7 5 -4 3 3 38 -3 78 -14 81 -22 99 -26 142 -33 17
-3 37 -8 46 -11 10 -2 30 -7 45 -9 16 -2 40 -6 53 -9 21 -5 49 -9 156 -23 22
-2 58 -6 80 -7 22 -1 46 -5 53 -9 7 -5 12 -3 12 4 0 7 4 8 13 2 6 -5 58 -9
114 -9 57 1 103 -3 103 -7 0 -5 5 -5 11 -2 5 4 58 8 117 9 59 1 113 5 121 10
10 7 12 6 6 -4 -6 -9 -4 -11 4 -5 7 4 34 9 59 11 69 6 136 12 142 14 3 1 15 1
28 0 12 -1 22 2 22 7 0 4 17 9 38 10 40 2 96 10 100 13 3 4 50 14 107 25 11 2
20 4 20 5 0 2 15 5 50 13 32 6 107 27 155 44 25 8 52 16 60 18 8 2 16 4 18 5
1 2 5 3 10 4 4 1 12 4 18 8 6 4 22 9 36 12 14 2 34 9 44 14 16 9 44 21 64 27
10 3 67 28 115 51 28 13 54 24 58 24 4 0 19 8 34 17 14 10 33 18 42 20 9 1 17
7 19 13 2 5 7 8 12 5 5 -3 14 0 22 7 7 7 31 22 53 33 55 28 190 110 248 151
26 19 49 34 52 34 3 0 14 8 25 17 11 10 23 17 25 16 3 -2 18 11 35 29 16 17
30 27 30 23 0 -4 8 2 19 13 10 12 22 22 27 22 5 0 17 8 25 18 9 9 40 37 69 62
29 25 64 56 77 70 12 14 23 22 23 18 0 -4 26 21 58 54 31 34 82 87 112 118 30
32 66 72 80 89 14 18 36 46 50 62 35 40 39 46 89 114 25 33 49 63 55 67 6 4 7
8 2 8 -6 0 -1 7 10 15 10 8 15 15 9 15 -7 0 -7 3 0 8 15 11 55 70 55 82 0 5 4
10 8 10 4 0 23 29 42 65 19 36 38 65 43 65 4 0 5 5 2 10 -3 6 -1 10 5 10 6 0
8 5 5 10 -3 6 -2 10 3 10 8 0 23 35 21 49 0 2 3 7 8 10 15 11 53 88 46 95 -3
3 -2 6 4 6 9 0 14 9 22 45 1 6 10 18 19 29 9 10 16 19 14 20 -1 0 3 17 10 36
7 19 11 38 10 42 -1 5 3 8 8 8 6 0 10 8 10 18 0 10 4 22 8 27 9 10 41 93 46
118 2 6 8 25 15 40 6 16 9 33 5 38 -3 5 -1 9 4 9 9 0 22 41 27 82 1 10 8 25
15 33 7 9 10 18 8 21 -3 3 0 26 8 51 8 25 11 49 8 54 -3 5 -1 9 5 9 5 0 10 8
9 18 0 9 3 27 6 40 10 38 16 66 22 102 3 19 7 44 9 55 5 32 17 119 18 133 0 6
5 12 11 12 7 0 7 3 1 8 -11 8 -16 42 -6 42 6 0 8 23 14 186 2 55 7 106 11 112
4 7 4 12 -1 12 -4 0 -8 24 -8 54 0 30 4 52 9 49 5 -4 6 -1 1 7 -7 11 -15 109
-19 232 0 21 -3 38 -6 38 -3 0 -5 12 -6 28 0 15 -4 52 -9 82 -4 30 -9 66 -10
80 -1 14 -5 36 -9 50 -3 14 -8 36 -10 50 -3 14 -5 25 -6 25 -1 0 -4 14 -6 30
-3 17 -12 55 -20 85 -9 30 -16 63 -15 72 0 10 -4 20 -10 23 -5 4 -9 19 -9 36
0 16 -4 29 -8 29 -5 0 -9 6 -10 13 -2 27 -19 81 -38 124 -8 17 -15 43 -16 57
-1 14 -6 26 -10 26 -3 0 -10 10 -13 23 -4 12 -13 36 -20 52 -15 32 -31 74 -35
90 -2 6 -14 30 -27 54 -12 24 -23 50 -23 57 0 8 -3 14 -7 14 -5 0 -19 25 -33
55 -14 30 -29 55 -33 55 -5 0 -6 4 -2 9 3 5 0 13 -5 16 -12 7 -34 55 -32 68 1
4 -5 7 -13 7 -8 0 -14 3 -13 8 2 10 -24 64 -39 80 -7 7 -16 24 -19 38 -3 13
-9 24 -13 24 -3 0 -17 21 -31 48 -13 26 -27 49 -30 52 -3 3 -12 19 -20 35 -8
17 -17 32 -21 35 -3 3 -13 21 -23 40 -38 76 -47 90 -57 90 -6 0 -8 4 -5 8 3 5
-4 21 -15 38 -11 16 -27 45 -36 64 -9 19 -21 38 -25 41 -4 3 -24 36 -43 75
-19 38 -35 65 -35 61 0 -5 -16 21 -35 57 -45 86 -59 110 -65 116 -3 3 -11 16
-18 29 -28 50 -53 92 -74 129 -12 20 -33 57 -47 82 -14 25 -29 47 -33 48 -4 2
-8 11 -8 19 0 9 -8 22 -17 30 -11 9 -12 11 -3 7 15 -8 -14 33 -35 48 -5 4 -7
8 -3 8 7 0 -17 45 -63 120 -5 8 -18 33 -30 55 -12 22 -27 43 -33 47 -6 4 -7 8
-2 8 5 0 3 7 -4 15 -14 17 -40 62 -66 113 -9 17 -21 32 -26 32 -5 0 -7 4 -4 9
3 5 -1 11 -9 15 -8 3 -15 11 -15 17 0 7 -11 24 -24 38 -98 104 -136 141 -146
141 -6 0 -8 5 -5 10 3 6 1 10 -4 10 -11 0 -38 20 -73 53 -10 9 -18 15 -18 12
0 -3 -19 7 -42 23 -40 27 -135 75 -150 76 -3 1 -10 4 -14 9 -4 4 -16 7 -26 7
-10 0 -18 4 -18 9 0 6 -9 8 -20 6 -11 -2 -20 1 -20 6 0 6 -4 7 -10 4 -5 -3
-10 -1 -10 6 0 7 -2 10 -5 7 -4 -3 -25 -1 -48 4 -55 13 -67 15 -113 23 -71 12
-84 12 -90 3 -3 -4 -11 -5 -17 -1 -10 7 -154 13 -160 7z"/>
<path d="M3543 7236 c-8 -4 -20 -9 -27 -10 -20 -3 -90 -50 -114 -76 -32 -36
-65 -110 -65 -147 0 -18 -5 -33 -10 -33 -6 0 -6 -5 -1 -12 5 -7 9 -25 8 -40 0
-16 4 -28 9 -28 6 0 8 -3 4 -6 -6 -7 52 -125 68 -136 6 -5 7 -8 0 -8 -7 0 -7
-3 0 -8 6 -4 16 -18 23 -31 8 -13 23 -40 34 -60 11 -20 24 -41 29 -47 5 -6 6
-14 2 -17 -3 -4 -2 -7 3 -7 5 0 23 -26 39 -58 17 -31 33 -58 38 -60 4 -2 7 -9
7 -17 0 -7 7 -18 15 -25 9 -7 13 -15 11 -17 -2 -3 9 -26 25 -51 16 -25 29 -52
29 -59 0 -7 4 -13 8 -13 4 0 19 -22 33 -50 13 -27 28 -50 32 -50 5 0 6 -4 3
-9 -3 -5 1 -14 9 -21 8 -7 15 -18 15 -25 0 -7 7 -18 15 -25 8 -7 12 -16 9 -21
-3 -5 0 -9 5 -9 6 0 11 -7 11 -15 0 -8 5 -15 11 -15 5 0 8 -4 4 -9 -3 -5 -1
-12 4 -15 5 -3 20 -28 34 -54 24 -47 44 -82 89 -159 11 -21 31 -56 42 -78 12
-22 24 -42 27 -45 3 -3 25 -41 49 -85 24 -44 48 -89 54 -100 6 -11 14 -22 17
-25 3 -3 12 -20 20 -37 8 -18 17 -33 21 -33 5 0 8 -5 8 -10 0 -6 11 -28 25
-50 14 -22 22 -40 18 -40 -4 0 2 -7 13 -15 10 -8 15 -15 11 -15 -5 0 1 -13 12
-28 11 -16 21 -35 23 -42 2 -8 11 -23 21 -34 9 -11 17 -26 17 -33 0 -7 5 -13
10 -13 6 0 10 -9 10 -20 0 -11 4 -20 9 -20 5 0 15 -16 22 -35 7 -19 16 -35 20
-35 4 0 14 -17 23 -37 21 -49 49 -96 59 -104 5 -3 9 -10 10 -15 0 -5 10 -25
21 -44 12 -19 19 -37 18 -39 -2 -2 0 -7 5 -10 11 -8 43 -61 50 -83 3 -10 10
-18 15 -18 5 0 7 -4 3 -9 -3 -5 -1 -12 4 -16 5 -3 16 -18 24 -33 7 -15 24 -45
37 -67 13 -22 36 -65 53 -95 16 -30 37 -63 45 -72 8 -10 12 -18 8 -18 -4 0 2
-13 13 -29 12 -16 21 -34 21 -40 0 -6 4 -11 8 -11 5 0 14 -16 22 -35 8 -19 17
-35 20 -35 3 0 12 -16 20 -35 8 -19 17 -35 22 -35 4 0 7 -3 6 -7 -2 -8 21 -55
31 -63 9 -7 35 -64 33 -72 -1 -5 2 -8 6 -8 5 0 20 -21 33 -47 13 -27 26 -50
29 -53 10 -10 41 -66 51 -92 6 -16 16 -28 22 -28 6 0 7 -3 4 -7 -4 -3 0 -15
10 -25 9 -10 12 -18 7 -18 -5 0 -4 -4 2 -8 6 -4 26 -36 45 -72 18 -36 36 -67
39 -70 14 -13 40 -60 33 -60 -5 0 -3 -4 2 -8 10 -7 15 -15 63 -101 14 -25 30
-49 36 -53 6 -5 7 -8 1 -8 -5 0 -2 -5 8 -11 9 -5 17 -14 17 -19 0 -28 221
-200 257 -200 7 0 13 -4 13 -8 0 -5 6 -9 13 -9 20 -1 42 -8 48 -15 3 -5 17 -9
32 -10 15 -1 27 -5 27 -9 0 -3 6 -6 13 -6 32 -1 119 -13 127 -18 5 -3 11 -1
15 4 4 7 15 7 31 1 30 -12 37 -12 31 -2 -3 4 22 8 55 9 32 1 66 7 74 14 11 9
14 9 14 -1 0 -9 3 -10 13 -1 8 6 17 8 20 4 4 -3 7 -2 7 4 0 5 6 10 13 10 18 0
145 61 152 73 4 6 11 8 16 5 5 -4 9 1 9 10 0 9 5 13 10 10 6 -3 10 -1 10 6 0
7 3 10 6 6 7 -6 144 130 144 143 0 5 6 15 14 22 12 13 49 76 51 88 0 3 8 21
17 40 24 52 41 111 54 190 14 88 -4 277 -30 309 -6 8 -9 15 -7 15 16 4 -87
210 -113 228 -6 4 -8 8 -3 8 4 0 -4 18 -18 41 -15 22 -35 56 -46 75 -10 19
-28 50 -39 70 -11 19 -28 46 -36 60 -9 13 -12 24 -8 24 5 0 4 4 -2 8 -14 9
-50 66 -65 105 -6 15 -15 27 -20 27 -5 0 -9 7 -9 15 0 8 -5 15 -11 15 -5 0 -8
4 -4 9 3 5 0 13 -5 16 -6 4 -15 17 -20 28 -5 12 -23 45 -40 72 -16 28 -39 69
-51 93 -11 23 -24 42 -30 42 -6 0 -7 5 -4 10 3 6 1 10 -4 10 -6 0 -11 5 -11
11 0 17 -65 121 -97 155 -40 43 -55 53 -110 72 -74 27 -204 17 -222 -17 -5 -9
-13 -15 -18 -14 -4 0 -19 -5 -33 -13 -14 -7 -21 -13 -17 -14 4 0 -3 -10 -16
-22 -53 -52 -82 -163 -64 -248 8 -33 40 -100 49 -100 5 0 7 -4 4 -9 -3 -5 1
-14 9 -21 8 -7 15 -16 15 -21 0 -11 73 -133 85 -141 5 -4 6 -8 1 -8 -5 0 -2
-8 7 -18 10 -10 14 -22 10 -25 -3 -4 -1 -7 6 -7 7 0 10 -4 7 -9 -3 -5 1 -11 9
-15 8 -3 15 -10 15 -17 0 -6 9 -24 21 -40 11 -16 17 -29 12 -29 -4 0 -3 -4 3
-8 6 -4 21 -26 33 -49 11 -23 25 -45 31 -48 6 -4 8 -11 5 -16 -4 -5 -2 -9 3
-9 5 0 17 -18 27 -40 10 -22 23 -40 28 -40 6 0 8 -3 4 -6 -3 -3 10 -30 28 -59
19 -29 31 -55 28 -59 -4 -3 -1 -6 5 -6 7 0 12 -7 12 -15 0 -8 5 -15 10 -15 6
0 10 -4 10 -9 0 -6 26 -54 57 -107 49 -83 57 -105 56 -145 0 -60 -22 -107 -63
-138 -38 -27 -104 -35 -143 -16 -19 9 -25 10 -21 2 7 -12 -22 12 -56 48 -11
11 -30 40 -42 65 -27 52 -51 93 -58 100 -3 3 -20 34 -39 70 -19 36 -38 68 -43
71 -5 3 -10 12 -12 20 -1 8 -22 48 -46 89 -25 41 -45 77 -45 80 0 3 -8 16 -16
30 -9 14 -38 63 -65 110 -26 47 -51 87 -54 90 -3 3 -6 11 -8 19 -2 8 -12 27
-23 43 -11 15 -17 28 -14 28 4 0 -1 7 -9 16 -9 8 -16 22 -16 30 0 8 -4 14 -9
14 -5 0 -13 9 -16 21 -7 20 -74 139 -85 149 -3 3 -6 12 -8 20 -2 8 -9 22 -16
30 -7 8 -30 47 -51 85 -80 147 -98 180 -104 185 -3 3 -13 19 -22 35 -38 75
-74 140 -79 145 -3 3 -12 19 -20 35 -8 17 -17 32 -20 35 -3 3 -12 19 -20 35
-8 17 -17 32 -20 35 -3 3 -17 28 -30 55 -14 28 -27 52 -30 55 -10 10 -41 65
-47 83 -3 9 -10 17 -15 17 -5 0 -7 4 -4 9 3 4 -3 19 -14 32 -12 12 -23 33 -26
46 -4 13 -11 23 -17 23 -6 0 -8 3 -4 6 3 4 -1 13 -9 21 -8 8 -12 19 -9 24 4 5
2 9 -4 9 -6 0 -20 20 -31 44 -11 25 -25 48 -30 51 -6 4 -8 11 -5 16 4 5 1 9
-5 9 -6 0 -9 4 -6 9 4 5 3 11 -2 13 -11 4 -57 81 -54 91 1 4 -3 7 -9 7 -5 0
-7 5 -4 10 3 6 2 10 -3 10 -5 0 -12 8 -16 18 -7 21 -39 76 -56 97 -7 8 -9 15
-6 15 4 0 -2 13 -13 29 -12 16 -21 34 -21 39 0 6 -3 12 -7 14 -9 3 -44 62 -71
118 -9 19 -24 41 -32 48 -13 12 -13 13 0 7 13 -6 13 -5 0 7 -8 7 -25 33 -38
58 -12 25 -34 65 -49 90 -37 63 -89 157 -137 245 -6 11 -13 22 -16 25 -3 3
-15 23 -27 45 -11 22 -30 56 -42 75 -11 19 -26 46 -32 60 -5 13 -13 27 -17 30
-4 3 -15 21 -24 40 -55 113 -144 200 -204 200 -11 0 -24 3 -28 7 -10 11 -104
10 -123 -1z"/>
</g>
</svg>
