<?xml version="1.0" encoding="UTF-8"?><svg id="Layer_1" xmlns="http://www.w3.org/2000/svg" viewBox="0 0 625.52 486.56"><defs><style>.cls-1{fill:#1072b9;fill-rule:evenodd;}</style></defs><path class="cls-1" d="M612.41,127.31c-2.08,0-3.95,.42-5.62,1.25v-11.23h-7.49v30.37c0,3.12-2.5,5.82-5.62,5.82-3.33,0-5.82-2.7-5.82-5.82v-13.11h5.82v-7.28h-5.82v-9.98h-7.49v30.37c0,7.28,6.03,13.11,13.31,13.11s13.11-5.82,13.11-13.11v-7.28c0-3.33,2.5-5.82,5.62-5.82,3.33,0,5.82,2.5,5.82,5.82v19.97h7.28v-19.97c0-7.28-5.82-13.11-13.11-13.11h0ZM333.25,0H44.52V32.45H300.8v8.32l-115.24,115.24h0c38.28,1.04,74.06,16.43,101.31,43.68l22.88,22.88,22.88-22.88h0c28.29-28.08,65.73-43.68,105.47-43.68h0c82.17,0,148.94,66.98,148.94,149.15h0c0,81.96-66.77,148.94-148.94,148.94h0c-39.73,0-77.18-15.6-105.47-43.68l-22.88-22.88-22.88,22.88h0c-28.29,28.08-65.73,43.68-105.47,43.68h0c-82.17,0-148.94-66.77-148.94-148.94v-6.03H0v6.03c0,99.85,81.34,181.39,181.39,181.39h0c48.47,0,94.03-18.93,128.35-53.25h0c34.32,34.32,79.88,53.25,128.35,53.25h0c100.06,0,181.39-81.54,181.39-181.39s-81.34-181.6-181.39-181.6h0c-48.47,0-94.03,18.93-128.35,53.25h0c-17.27-17.27-37.44-30.58-59.49-39.73h0l83-82.79V0ZM44.52,38.28v32.45H216.76l-63.24,63.24-10.4,10.4v49.92h38.28c29.54,0,57.41,11.65,78.42,32.45h0l-70.1,70.1h0c-15.39,15.6-40.56,15.6-56.17,0h0c-7.49-7.49-11.65-17.47-11.65-28.08h0c0-10.61,4.16-20.59,11.65-28.08h0c.83-.62,1.04-1.46,.83-1.87,.21,.42,0,1.25-.83,1.87h0c-3.33,3.54-6.03,7.28-8.11,11.65h0c-4.99,8.32-7.7,18.1-7.7,28.29h0c0,14.77,5.82,28.71,16.43,39.11h0c21.63,21.63,56.79,21.63,78.42,0l92.98-92.98-22.88-22.88h0c-27.04-27.04-63.03-42.02-101.31-42.02h-5.82v-4.16l.83-.83,118.57-118.57H44.52Zm89.86,200.53v0h0Zm-.21-.83v0h0Zm-2.29-1.25c-.62,0-1.04,.42-1.66,.83h0v0h0c.62-.42,1.04-.83,1.66-.83h0Zm-12.9,15.19c-18.1,29.75-14.35,69.27,11.23,94.86h0c15.19,15.19,34.95,22.67,54.71,22.67h0c19.76,0,39.73-7.49,54.71-22.67h0l1.66-1.46h0l118.57-118.57c20.8-20.8,48.68-32.45,78.22-32.45h0c61.16,0,110.67,49.72,110.67,110.87h0c0,60.95-49.51,110.67-110.67,110.67h0c-29.54,0-57.41-11.65-78.22-32.45h-.21l76.55-76.55h0c15.6-15.6,40.77-15.6,56.17,0h0c12.07,12.07,14.77,29.95,7.9,44.72h.21c12.48-21.43,9.57-49.3-8.53-67.61h0c-10.61-10.61-24.55-16.23-39.32-16.23h0c-14.98,0-28.91,5.62-39.32,16.23l-99.43,99.43,22.88,22.88h0c27.04,27.04,63.03,42.02,101.31,42.02h0c78.84,0,143.12-64.28,143.12-143.12h0c0-79.05-64.28-143.33-143.12-143.33h0c-38.28,0-74.26,14.98-101.31,42.02l-120.03,120.03h0c-23.92,23.92-62.82,23.92-86.74,0h0c-19.55-19.35-23.3-48.88-11.03-71.97h0Zm381.3,99.85c-.21,.21-.21,.42-.42,.62,.21-.21,.21-.42,.42-.62h0Zm-.42,.83c-.21,.21-.21,.42-.42,.62,.21-.21,.21-.42,.42-.62h0Zm-.42,.83c-.21,.21-.21,.42-.42,.83,.21-.42,.21-.62,.42-.83h0Zm-.42,.83c-.21,.21-.42,.42-.42,.83,0-.42,.21-.62,.42-.83h0Zm-.62,.83c0,.21-.21,.62-.42,.83,.21-.21,.42-.62,.42-.83h0Zm-.42,.83c-.21,.21-.42,.42-.42,.83,0-.42,.21-.62,.42-.83h0Zm-.62,.83c0,.21-.21,.42-.42,.83,.21-.42,.42-.62,.42-.83h0Zm-.42,.83c-.21,.21-.42,.42-.62,.83,.21-.42,.42-.62,.62-.83h0Zm-.62,.83c-.21,.21-.42,.42-.62,.83,.21-.42,.42-.62,.62-.83h0Zm-.62,.83l-.62,.62,.62-.62h0Zm-.62,.62c-.21,.42-.42,.62-.62,.83,.21-.21,.42-.42,.62-.83h0Zm-1.25,1.66c-.21,.21-.42,.42-.62,.62,.21-.21,.42-.42,.62-.62h0Zm-.83,.62c-.21,.42-.42,.62-.62,.83,.21-.21,.42-.62,.62-.83h0Zm13.94-10.4c18.31-29.75,14.56-69.27-11.23-94.86h0c-30.16-30.16-79.26-30.16-109.42,0h0l-1.66,1.46h0l-124.81,125.02c-21.01,20.8-48.88,32.45-78.42,32.45h0c-60.95,0-110.67-49.72-110.67-110.67h0v-6.03H38.28v6.03h0c0,78.84,64.28,143.12,143.12,143.12h0c38.28,0,74.26-14.98,101.31-42.02l126.48-126.48h0c11.65-11.65,27.04-18.1,43.48-18.1h0c16.43,0,31.83,6.45,43.48,18.1h0c19.35,19.35,23.09,48.88,10.82,71.97h0Z"/></svg>